# xmcd CD database file
#
# Track frame offsets:
#	150
#	28283
#	52434
#	74391
#	100459
#	115104
#	132457
#	152876
#	195982
#	214996
#	243682
#	284584
#
# Disc length: 4303 seconds
#
# Revision: 1
# Processed by: cddbd v1.5PL3 Copyright (c) Steve Scherf et al.
# Submitted via: CDex 1.50Beta5
#
DISCID=c710cd0c
DTITLE=AA.VV. - NextAge vol. 2
DYEAR=2004
DGENRE=New Age
TTITLE0=Astral Jazz - Touch
TTITLE1=Giovanni Lodigiani - The Gift Of Life
TTITLE2=Capercallie - Truth Calling
TTITLE3=James Wilkinson - Something There
TTITLE4=Paki Zennaro The Spirit's House
TTITLE5=Philip Riley - Scatterbone Runes
TTITLE6=Ten String Group - Winter Light
TTITLE7=Patrick Kosmos - Mahè
TTITLE8=Roberto Pereira - Joia
TTITLE9=Cerquetti and Capitanata - Here And Now
TTITLE10=Rudy Adrian - The Healing Lake
TTITLE11=traccia dati
EXTD=YEAR: 2004
EXTT0=
EXTT1=
EXTT2=
EXTT3=
EXTT4=
EXTT5=
EXTT6=
EXTT7=
EXTT8=
EXTT9=
EXTT10=
EXTT11=
PLAYORDER=
